<?xml version="1.0" encoding="UTF-8"?>
<svg version="1.1" xmlns="http://www.w3.org/2000/svg" width="39" height="42">
<path d="M0 0 C12.87 0 25.74 0 39 0 C39 13.86 39 27.72 39 42 C26.13 42 13.26 42 0 42 C0 28.14 0 14.28 0 0 Z " fill="#0A0A0A" transform="translate(0,0)"/>
<path d="M0 0 C0.66 0 1.32 0 2 0 C2.33 1.65 2.66 3.3 3 5 C3.66 4.34 4.32 3.68 5 3 C5.99 3 6.98 3 8 3 C8 2.34 8 1.68 8 1 C10.97 1 13.94 1 17 1 C17 1.66 17 2.32 17 3 C18.65 3.66 20.3 4.32 22 5 C22 3.35 22 1.7 22 0 C22.99 0 23.98 0 25 0 C25.10887507 2.68860931 25.18770594 5.37273158 25.25 8.0625 C25.30027344 9.19075195 25.30027344 9.19075195 25.3515625 10.34179688 C25.45040887 16.05017446 24.36283612 19.34888313 21 24 C15.44878612 25.85040463 9.26377884 25.88775641 3.8125 23.75 C3.214375 23.1725 2.61625 22.595 2 22 C2 20.68 2 19.36 2 18 C1.34 18 0.68 18 0 18 C0 12.06 0 6.12 0 0 Z " fill="#C86F9D" transform="translate(9,8)"/>
<path d="M0 0 C0.99 0 1.98 0 3 0 C3.08126109 2.72977064 3.14061663 5.4571017 3.1875 8.1875 C3.21263672 8.95642578 3.23777344 9.72535156 3.26367188 10.51757812 C3.3228804 15.11610723 3.17103386 18.36772485 0 22 C-3.6875 22.3125 -3.6875 22.3125 -7 22 C-7 21.01 -7 20.02 -7 19 C-9.31 18.67 -11.62 18.34 -14 18 C-13.67 16.68 -13.34 15.36 -13 14 C-7.06 13.505 -7.06 13.505 -1 13 C-1 11.02 -1 9.04 -1 7 C-4.3 7 -7.6 7 -11 7 C-10.67 5.68 -10.34 4.36 -10 3 C-3.375 2.75 -3.375 2.75 0 5 C0 3.35 0 1.7 0 0 Z " fill="#D5C4E5" transform="translate(31,8)"/>
<path d="M0 0 C1.58206057 0.00667536 3.16410534 0.0186375 4.74609375 0.03515625 C5.55240234 0.03966797 6.35871094 0.04417969 7.18945312 0.04882812 C9.18753131 0.06065107 11.18557158 0.07858711 13.18359375 0.09765625 C13.56492674 2.08906185 13.89684957 4.09044702 14.18359375 6.09765625 C12.29806845 7.98318155 9.60590544 7.23012314 7.1015625 7.234375 C6.30363281 7.23050781 5.50570313 7.22664063 4.68359375 7.22265625 C3.88566406 7.22652344 3.08773438 7.23039062 2.265625 7.234375 C-3.68979858 7.22426392 -3.68979858 7.22426392 -4.81640625 6.09765625 C-4.94140625 3.59765625 -4.94140625 3.59765625 -4.81640625 1.09765625 C-3.81640625 0.09765625 -3.81640625 0.09765625 0 0 Z " fill="#332248" transform="translate(16.81640625,14.90234375)"/>
<path d="M0 0 C3.46093134 -0.19966912 6.2014503 -0.32761013 9.4375 1 C11.55428596 3.70948603 11.56462573 5.7467224 11.390625 9.12109375 C11 11 11 11 9.25 13.0625 C6.6468225 14.14715729 5.58518155 14.01560704 3 13 C3 12.34 3 11.68 3 11 C4.98 10.67 6.96 10.34 9 10 C9 8.02 9 6.04 9 4 C5.7 4 2.4 4 -1 4 C-0.67 2.68 -0.34 1.36 0 0 Z " fill="#E4DAED" transform="translate(21,11)"/>
<path d="M0 0 C0.66 0 1.32 0 2 0 C2 0.99 2 1.98 2 3 C4.64 3 7.28 3 10 3 C10 2.01 10 1.02 10 0 C10.99 0 11.98 0 13 0 C13 0.66 13 1.32 13 2 C13.99 2 14.98 2 16 2 C15.67 2.99 15.34 3.98 15 5 C9.39 5 3.78 5 -2 5 C-2.33 4.01 -2.66 3.02 -3 2 C-2.34 2 -1.68 2 -1 2 C-0.67 1.34 -0.34 0.68 0 0 Z " fill="#38558D" transform="translate(15,17)"/>
<path d="M0 0 C0.66 0.33 1.32 0.66 2 1 C1.67 1.99 1.34 2.98 1 4 C3.31 4 5.62 4 8 4 C8.33 4.99 8.66 5.98 9 7 C11.97 7.495 11.97 7.495 15 8 C15 8.33 15 8.66 15 9 C9.72 9 4.44 9 -1 9 C-0.67 6.03 -0.34 3.06 0 0 Z " fill="#CDB5DE" transform="translate(16,22)"/>
<path d="M0 0 C2.97 0 5.94 0 9 0 C9 0.66 9 1.32 9 2 C7.35 2 5.7 2 4 2 C3.67 3.32 3.34 4.64 3 6 C0.69 6 -1.62 6 -4 6 C-3.67 4.68 -3.34 3.36 -3 2 C-2.01 2 -1.02 2 0 2 C0 1.34 0 0.68 0 0 Z " fill="#DBB696" transform="translate(17,9)"/>
<path d="M0 0 C0.99 0 1.98 0 3 0 C3 5.61 3 11.22 3 17 C2.34 17.33 1.68 17.66 1 18 C0.67 12.06 0.34 6.12 0 0 Z " fill="#F73278" transform="translate(31,8)"/>
<path d="M0 0 C0.99 0 1.98 0 3 0 C3 2.64 3 5.28 3 8 C2.01 8.33 1.02 8.66 0 9 C0 6.03 0 3.06 0 0 Z " fill="#C9ACC5" transform="translate(13,22)"/>
<path d="M0 0 C1.98 0 3.96 0 6 0 C6.33 0.99 6.66 1.98 7 3 C4.69 3 2.38 3 0 3 C0 2.01 0 1.02 0 0 Z " fill="#322549" transform="translate(18,26)"/>
</svg>
